<?xml version="1.0"?>
<!-- Generated by SVGo and Plotinum VG -->
<svg width="460pt" height="280pt" viewBox="0 0 460 280"
	xmlns="http://www.w3.org/2000/svg"
	xmlns:xlink="http://www.w3.org/1999/xlink">
<g transform="scale(1, -1) translate(0, -280)">
<path d="M0,0L460,0L460,280L0,280Z" style="fill:#1E1E1E" />
<text x="222.77" y="-5.6133" transform="scale(1, -1)"
	style="font-family:Liberation Mono;font-variant:normal;font-weight:normal;font-style:normal;font-size:12px;fill:#F3F4F6">entities</text>
<text x="49.151" y="-18.271" transform="scale(1, -1)"
	style="font-family:Liberation Mono;font-variant:normal;font-weight:normal;font-style:normal;font-size:10px;fill:#F3F4F6">100</text>
<text x="123.52" y="-18.271" transform="scale(1, -1)"
	style="font-family:Liberation Mono;font-variant:normal;font-weight:normal;font-style:normal;font-size:10px;fill:#F3F4F6">1000</text>
<text x="197.89" y="-18.271" transform="scale(1, -1)"
	style="font-family:Liberation Mono;font-variant:normal;font-weight:normal;font-style:normal;font-size:10px;fill:#F3F4F6">10000</text>
<text x="272.26" y="-18.271" transform="scale(1, -1)"
	style="font-family:Liberation Mono;font-variant:normal;font-weight:normal;font-style:normal;font-size:10px;fill:#F3F4F6">100000</text>
<text x="352.63" y="-18.271" transform="scale(1, -1)"
	style="font-family:Liberation Mono;font-variant:normal;font-weight:normal;font-style:normal;font-size:10px;fill:#F3F4F6">1e+06</text>
<text x="430" y="-18.271" transform="scale(1, -1)"
	style="font-family:Liberation Mono;font-variant:normal;font-weight:normal;font-style:normal;font-size:10px;fill:#F3F4F6">1e+07</text>
<path d="M58.152,24.922L58.152,32.922" style="fill:none;stroke:#F3F4F6;stroke-width:0.5" />
<path d="M58.152,28.922L58.152,32.922" style="fill:none;stroke:#F3F4F6;stroke-width:0.5" />
<path d="M81.443,28.922L81.443,32.922" style="fill:none;stroke:#F3F4F6;stroke-width:0.5" />
<path d="M95.067,28.922L95.067,32.922" style="fill:none;stroke:#F3F4F6;stroke-width:0.5" />
<path d="M104.73,28.922L104.73,32.922" style="fill:none;stroke:#F3F4F6;stroke-width:0.5" />
<path d="M112.23,28.922L112.23,32.922" style="fill:none;stroke:#F3F4F6;stroke-width:0.5" />
<path d="M118.36,28.922L118.36,32.922" style="fill:none;stroke:#F3F4F6;stroke-width:0.5" />
<path d="M123.54,28.922L123.54,32.922" style="fill:none;stroke:#F3F4F6;stroke-width:0.5" />
<path d="M128.02,28.922L128.02,32.922" style="fill:none;stroke:#F3F4F6;stroke-width:0.5" />
<path d="M131.98,28.922L131.98,32.922" style="fill:none;stroke:#F3F4F6;stroke-width:0.5" />
<path d="M135.52,24.922L135.52,32.922" style="fill:none;stroke:#F3F4F6;stroke-width:0.5" />
<path d="M135.52,28.922L135.52,32.922" style="fill:none;stroke:#F3F4F6;stroke-width:0.5" />
<path d="M158.81,28.922L158.81,32.922" style="fill:none;stroke:#F3F4F6;stroke-width:0.5" />
<path d="M172.44,28.922L172.44,32.922" style="fill:none;stroke:#F3F4F6;stroke-width:0.5" />
<path d="M182.1,28.922L182.1,32.922" style="fill:none;stroke:#F3F4F6;stroke-width:0.5" />
<path d="M189.6,28.922L189.6,32.922" style="fill:none;stroke:#F3F4F6;stroke-width:0.5" />
<path d="M195.73,28.922L195.73,32.922" style="fill:none;stroke:#F3F4F6;stroke-width:0.5" />
<path d="M200.91,28.922L200.91,32.922" style="fill:none;stroke:#F3F4F6;stroke-width:0.5" />
<path d="M205.39,28.922L205.39,32.922" style="fill:none;stroke:#F3F4F6;stroke-width:0.5" />
<path d="M209.35,28.922L209.35,32.922" style="fill:none;stroke:#F3F4F6;stroke-width:0.5" />
<path d="M212.89,24.922L212.89,32.922" style="fill:none;stroke:#F3F4F6;stroke-width:0.5" />
<path d="M212.89,28.922L212.89,32.922" style="fill:none;stroke:#F3F4F6;stroke-width:0.5" />
<path d="M236.18,28.922L236.18,32.922" style="fill:none;stroke:#F3F4F6;stroke-width:0.5" />
<path d="M249.8,28.922L249.8,32.922" style="fill:none;stroke:#F3F4F6;stroke-width:0.5" />
<path d="M259.47,28.922L259.47,32.922" style="fill:none;stroke:#F3F4F6;stroke-width:0.5" />
<path d="M266.97,28.922L266.97,32.922" style="fill:none;stroke:#F3F4F6;stroke-width:0.5" />
<path d="M273.1,28.922L273.1,32.922" style="fill:none;stroke:#F3F4F6;stroke-width:0.5" />
<path d="M278.27,28.922L278.27,32.922" style="fill:none;stroke:#F3F4F6;stroke-width:0.5" />
<path d="M282.76,28.922L282.76,32.922" style="fill:none;stroke:#F3F4F6;stroke-width:0.5" />
<path d="M286.72,28.922L286.72,32.922" style="fill:none;stroke:#F3F4F6;stroke-width:0.5" />
<path d="M290.26,24.922L290.26,32.922" style="fill:none;stroke:#F3F4F6;stroke-width:0.5" />
<path d="M290.26,28.922L290.26,32.922" style="fill:none;stroke:#F3F4F6;stroke-width:0.5" />
<path d="M313.55,28.922L313.55,32.922" style="fill:none;stroke:#F3F4F6;stroke-width:0.5" />
<path d="M327.17,28.922L327.17,32.922" style="fill:none;stroke:#F3F4F6;stroke-width:0.5" />
<path d="M336.84,28.922L336.84,32.922" style="fill:none;stroke:#F3F4F6;stroke-width:0.5" />
<path d="M344.34,28.922L344.34,32.922" style="fill:none;stroke:#F3F4F6;stroke-width:0.5" />
<path d="M350.46,28.922L350.46,32.922" style="fill:none;stroke:#F3F4F6;stroke-width:0.5" />
<path d="M355.64,28.922L355.64,32.922" style="fill:none;stroke:#F3F4F6;stroke-width:0.5" />
<path d="M360.13,28.922L360.13,32.922" style="fill:none;stroke:#F3F4F6;stroke-width:0.5" />
<path d="M364.09,28.922L364.09,32.922" style="fill:none;stroke:#F3F4F6;stroke-width:0.5" />
<path d="M367.63,24.922L367.63,32.922" style="fill:none;stroke:#F3F4F6;stroke-width:0.5" />
<path d="M367.63,28.922L367.63,32.922" style="fill:none;stroke:#F3F4F6;stroke-width:0.5" />
<path d="M390.92,28.922L390.92,32.922" style="fill:none;stroke:#F3F4F6;stroke-width:0.5" />
<path d="M404.54,28.922L404.54,32.922" style="fill:none;stroke:#F3F4F6;stroke-width:0.5" />
<path d="M414.21,28.922L414.21,32.922" style="fill:none;stroke:#F3F4F6;stroke-width:0.5" />
<path d="M421.71,28.922L421.71,32.922" style="fill:none;stroke:#F3F4F6;stroke-width:0.5" />
<path d="M427.83,28.922L427.83,32.922" style="fill:none;stroke:#F3F4F6;stroke-width:0.5" />
<path d="M433.01,28.922L433.01,32.922" style="fill:none;stroke:#F3F4F6;stroke-width:0.5" />
<path d="M437.5,28.922L437.5,32.922" style="fill:none;stroke:#F3F4F6;stroke-width:0.5" />
<path d="M441.46,28.922L441.46,32.922" style="fill:none;stroke:#F3F4F6;stroke-width:0.5" />
<path d="M445,24.922L445,32.922" style="fill:none;stroke:#F3F4F6;stroke-width:0.5" />
<path d="M58.152,32.922L445,32.922" style="fill:none;stroke:#F3F4F6;stroke-width:0.5" />
<g transform="rotate(90)">
<text x="83.949" y="7.9805" transform="scale(1, -1)"
	style="font-family:Liberation Mono;font-variant:normal;font-weight:normal;font-style:normal;font-size:12px;fill:#F3F4F6">time per entity [ns]</text>
</g>
<text x="17.197" y="-32.186" transform="scale(1, -1)"
	style="font-family:Liberation Mono;font-variant:normal;font-weight:normal;font-style:normal;font-size:10px;fill:#F3F4F6">0.00</text>
<text x="17.197" y="-149.02" transform="scale(1, -1)"
	style="font-family:Liberation Mono;font-variant:normal;font-weight:normal;font-style:normal;font-size:10px;fill:#F3F4F6">2.50</text>
<text x="17.197" y="-265.86" transform="scale(1, -1)"
	style="font-family:Liberation Mono;font-variant:normal;font-weight:normal;font-style:normal;font-size:10px;fill:#F3F4F6">5.00</text>
<path d="M47.202,33.172L55.202,33.172" style="fill:none;stroke:#F3F4F6;stroke-width:0.5" />
<path d="M47.202,150.01L55.202,150.01" style="fill:none;stroke:#F3F4F6;stroke-width:0.5" />
<path d="M47.202,266.84L55.202,266.84" style="fill:none;stroke:#F3F4F6;stroke-width:0.5" />
<path d="M51.202,56.539L55.202,56.539" style="fill:none;stroke:#F3F4F6;stroke-width:0.5" />
<path d="M51.202,79.906L55.202,79.906" style="fill:none;stroke:#F3F4F6;stroke-width:0.5" />
<path d="M51.202,103.27L55.202,103.27" style="fill:none;stroke:#F3F4F6;stroke-width:0.5" />
<path d="M51.202,126.64L55.202,126.64" style="fill:none;stroke:#F3F4F6;stroke-width:0.5" />
<path d="M51.202,173.37L55.202,173.37" style="fill:none;stroke:#F3F4F6;stroke-width:0.5" />
<path d="M51.202,196.74L55.202,196.74" style="fill:none;stroke:#F3F4F6;stroke-width:0.5" />
<path d="M51.202,220.11L55.202,220.11" style="fill:none;stroke:#F3F4F6;stroke-width:0.5" />
<path d="M51.202,243.47L55.202,243.47" style="fill:none;stroke:#F3F4F6;stroke-width:0.5" />
<path d="M55.202,33.172L55.202,278.75" style="fill:none;stroke:#F3F4F6;stroke-width:0.5" />
<path d="M58.152,97.628L135.52,73.101L212.89,71.51L290.26,70.957L367.63,81.872L445,96.823" style="fill:none;stroke:#FAFAFA;stroke-width:1.5" />
<path d="M58.152,97.817L135.52,72.989L212.89,71.888L290.26,71.12L367.63,81.103L445,99.085" style="fill:none;stroke:#FAFAFA;stroke-width:2" />
<path d="M58.152,98.111L135.52,72.904L212.89,71.8L290.26,71.102L367.63,81.504L445,98.11" style="fill:none;stroke:#FAFAFA;stroke-width:2.5" />
<path d="M58.152,97.391L135.52,73.578L212.89,72.036L290.26,71.437L367.63,80.961L445,98.141" style="fill:none;stroke:#FAFAFA;stroke-width:3" />
<path d="M58.152,65.064L135.52,63.336L212.89,71.582L290.26,71.504L367.63,102.68L445,112.07" style="fill:none;stroke:#33ADFF;stroke-width:1.5" />
<path d="M58.152,65.68L135.52,72.436L212.89,81.409L290.26,84.651L367.63,156.38L445,169.52" style="fill:none;stroke:#33ADFF;stroke-width:2" />
<path d="M58.152,64.164L135.52,71.72L212.89,131.04L290.26,132.83L367.63,268.36L445,278.75" style="fill:none;stroke:#33ADFF;stroke-width:2.5" />
<path d="M58.152,63.529L135.52,68.492L212.89,114.18L290.26,131.91L367.63,267.9L445,273.86" style="fill:none;stroke:#33ADFF;stroke-width:3" />
<path d="M56.652,272.12L76.652,272.12" style="fill:none;stroke:#FAFAFA;stroke-width:1.5" />
<text x="83.253" y="-271.03" transform="scale(1, -1)"
	style="font-family:Liberation Mono;font-variant:normal;font-weight:normal;font-style:normal;font-size:11px;fill:#F3F4F6">Ark   4 Variables   32B</text>
<path d="M56.652,260.96L76.652,260.96" style="fill:none;stroke:#FAFAFA;stroke-width:2" />
<text x="83.253" y="-259.88" transform="scale(1, -1)"
	style="font-family:Liberation Mono;font-variant:normal;font-weight:normal;font-style:normal;font-size:11px;fill:#F3F4F6">Ark   8 Variables   64B</text>
<path d="M56.652,249.8L76.652,249.8" style="fill:none;stroke:#FAFAFA;stroke-width:2.5" />
<text x="83.253" y="-248.72" transform="scale(1, -1)"
	style="font-family:Liberation Mono;font-variant:normal;font-weight:normal;font-style:normal;font-size:11px;fill:#F3F4F6">Ark  16 Variables  128B</text>
<path d="M56.652,238.64L76.652,238.64" style="fill:none;stroke:#FAFAFA;stroke-width:3" />
<text x="83.253" y="-237.56" transform="scale(1, -1)"
	style="font-family:Liberation Mono;font-variant:normal;font-weight:normal;font-style:normal;font-size:11px;fill:#F3F4F6">Ark  32 Variables  256B</text>
<path d="M56.652,227.49L76.652,227.49" style="fill:none;stroke:#33ADFF;stroke-width:1.5" />
<text x="83.253" y="-226.4" transform="scale(1, -1)"
	style="font-family:Liberation Mono;font-variant:normal;font-weight:normal;font-style:normal;font-size:11px;fill:#F3F4F6">AoS   4 Variables   32B</text>
<path d="M56.652,216.33L76.652,216.33" style="fill:none;stroke:#33ADFF;stroke-width:2" />
<text x="83.253" y="-215.24" transform="scale(1, -1)"
	style="font-family:Liberation Mono;font-variant:normal;font-weight:normal;font-style:normal;font-size:11px;fill:#F3F4F6">AoS   8 Variables   64B</text>
<path d="M56.652,205.17L76.652,205.17" style="fill:none;stroke:#33ADFF;stroke-width:2.5" />
<text x="83.253" y="-204.09" transform="scale(1, -1)"
	style="font-family:Liberation Mono;font-variant:normal;font-weight:normal;font-style:normal;font-size:11px;fill:#F3F4F6">AoS  16 Variables  128B</text>
<path d="M56.652,194.01L76.652,194.01" style="fill:none;stroke:#33ADFF;stroke-width:3" />
<text x="83.253" y="-192.93" transform="scale(1, -1)"
	style="font-family:Liberation Mono;font-variant:normal;font-weight:normal;font-style:normal;font-size:11px;fill:#F3F4F6">AoS  32 Variables  256B</text>
</g>
</svg>
