<?xml version="1.0"?>
<!-- Generated by SVGo and Plotinum VG -->
<svg width="460pt" height="280pt" viewBox="0 0 460 280"
	xmlns="http://www.w3.org/2000/svg"
	xmlns:xlink="http://www.w3.org/1999/xlink">
<g transform="scale(1, -1) translate(0, -280)">
<path d="M0,0L460,0L460,280L0,280Z" style="fill:#FAFAFA" />
<text x="222.77" y="-5.6133" transform="scale(1, -1)"
	style="font-family:Liberation Mono;font-variant:normal;font-weight:normal;font-style:normal;font-size:12px">entities</text>
<text x="49.151" y="-18.271" transform="scale(1, -1)"
	style="font-family:Liberation Mono;font-variant:normal;font-weight:normal;font-style:normal;font-size:10px">100</text>
<text x="123.52" y="-18.271" transform="scale(1, -1)"
	style="font-family:Liberation Mono;font-variant:normal;font-weight:normal;font-style:normal;font-size:10px">1000</text>
<text x="197.89" y="-18.271" transform="scale(1, -1)"
	style="font-family:Liberation Mono;font-variant:normal;font-weight:normal;font-style:normal;font-size:10px">10000</text>
<text x="272.26" y="-18.271" transform="scale(1, -1)"
	style="font-family:Liberation Mono;font-variant:normal;font-weight:normal;font-style:normal;font-size:10px">100000</text>
<text x="352.63" y="-18.271" transform="scale(1, -1)"
	style="font-family:Liberation Mono;font-variant:normal;font-weight:normal;font-style:normal;font-size:10px">1e+06</text>
<text x="430" y="-18.271" transform="scale(1, -1)"
	style="font-family:Liberation Mono;font-variant:normal;font-weight:normal;font-style:normal;font-size:10px">1e+07</text>
<path d="M58.152,24.922L58.152,32.922" style="fill:none;stroke:#000000;stroke-width:0.5" />
<path d="M58.152,28.922L58.152,32.922" style="fill:none;stroke:#000000;stroke-width:0.5" />
<path d="M81.443,28.922L81.443,32.922" style="fill:none;stroke:#000000;stroke-width:0.5" />
<path d="M95.067,28.922L95.067,32.922" style="fill:none;stroke:#000000;stroke-width:0.5" />
<path d="M104.73,28.922L104.73,32.922" style="fill:none;stroke:#000000;stroke-width:0.5" />
<path d="M112.23,28.922L112.23,32.922" style="fill:none;stroke:#000000;stroke-width:0.5" />
<path d="M118.36,28.922L118.36,32.922" style="fill:none;stroke:#000000;stroke-width:0.5" />
<path d="M123.54,28.922L123.54,32.922" style="fill:none;stroke:#000000;stroke-width:0.5" />
<path d="M128.02,28.922L128.02,32.922" style="fill:none;stroke:#000000;stroke-width:0.5" />
<path d="M131.98,28.922L131.98,32.922" style="fill:none;stroke:#000000;stroke-width:0.5" />
<path d="M135.52,24.922L135.52,32.922" style="fill:none;stroke:#000000;stroke-width:0.5" />
<path d="M135.52,28.922L135.52,32.922" style="fill:none;stroke:#000000;stroke-width:0.5" />
<path d="M158.81,28.922L158.81,32.922" style="fill:none;stroke:#000000;stroke-width:0.5" />
<path d="M172.44,28.922L172.44,32.922" style="fill:none;stroke:#000000;stroke-width:0.5" />
<path d="M182.1,28.922L182.1,32.922" style="fill:none;stroke:#000000;stroke-width:0.5" />
<path d="M189.6,28.922L189.6,32.922" style="fill:none;stroke:#000000;stroke-width:0.5" />
<path d="M195.73,28.922L195.73,32.922" style="fill:none;stroke:#000000;stroke-width:0.5" />
<path d="M200.91,28.922L200.91,32.922" style="fill:none;stroke:#000000;stroke-width:0.5" />
<path d="M205.39,28.922L205.39,32.922" style="fill:none;stroke:#000000;stroke-width:0.5" />
<path d="M209.35,28.922L209.35,32.922" style="fill:none;stroke:#000000;stroke-width:0.5" />
<path d="M212.89,24.922L212.89,32.922" style="fill:none;stroke:#000000;stroke-width:0.5" />
<path d="M212.89,28.922L212.89,32.922" style="fill:none;stroke:#000000;stroke-width:0.5" />
<path d="M236.18,28.922L236.18,32.922" style="fill:none;stroke:#000000;stroke-width:0.5" />
<path d="M249.8,28.922L249.8,32.922" style="fill:none;stroke:#000000;stroke-width:0.5" />
<path d="M259.47,28.922L259.47,32.922" style="fill:none;stroke:#000000;stroke-width:0.5" />
<path d="M266.97,28.922L266.97,32.922" style="fill:none;stroke:#000000;stroke-width:0.5" />
<path d="M273.1,28.922L273.1,32.922" style="fill:none;stroke:#000000;stroke-width:0.5" />
<path d="M278.27,28.922L278.27,32.922" style="fill:none;stroke:#000000;stroke-width:0.5" />
<path d="M282.76,28.922L282.76,32.922" style="fill:none;stroke:#000000;stroke-width:0.5" />
<path d="M286.72,28.922L286.72,32.922" style="fill:none;stroke:#000000;stroke-width:0.5" />
<path d="M290.26,24.922L290.26,32.922" style="fill:none;stroke:#000000;stroke-width:0.5" />
<path d="M290.26,28.922L290.26,32.922" style="fill:none;stroke:#000000;stroke-width:0.5" />
<path d="M313.55,28.922L313.55,32.922" style="fill:none;stroke:#000000;stroke-width:0.5" />
<path d="M327.17,28.922L327.17,32.922" style="fill:none;stroke:#000000;stroke-width:0.5" />
<path d="M336.84,28.922L336.84,32.922" style="fill:none;stroke:#000000;stroke-width:0.5" />
<path d="M344.34,28.922L344.34,32.922" style="fill:none;stroke:#000000;stroke-width:0.5" />
<path d="M350.46,28.922L350.46,32.922" style="fill:none;stroke:#000000;stroke-width:0.5" />
<path d="M355.64,28.922L355.64,32.922" style="fill:none;stroke:#000000;stroke-width:0.5" />
<path d="M360.13,28.922L360.13,32.922" style="fill:none;stroke:#000000;stroke-width:0.5" />
<path d="M364.09,28.922L364.09,32.922" style="fill:none;stroke:#000000;stroke-width:0.5" />
<path d="M367.63,24.922L367.63,32.922" style="fill:none;stroke:#000000;stroke-width:0.5" />
<path d="M367.63,28.922L367.63,32.922" style="fill:none;stroke:#000000;stroke-width:0.5" />
<path d="M390.92,28.922L390.92,32.922" style="fill:none;stroke:#000000;stroke-width:0.5" />
<path d="M404.54,28.922L404.54,32.922" style="fill:none;stroke:#000000;stroke-width:0.5" />
<path d="M414.21,28.922L414.21,32.922" style="fill:none;stroke:#000000;stroke-width:0.5" />
<path d="M421.71,28.922L421.71,32.922" style="fill:none;stroke:#000000;stroke-width:0.5" />
<path d="M427.83,28.922L427.83,32.922" style="fill:none;stroke:#000000;stroke-width:0.5" />
<path d="M433.01,28.922L433.01,32.922" style="fill:none;stroke:#000000;stroke-width:0.5" />
<path d="M437.5,28.922L437.5,32.922" style="fill:none;stroke:#000000;stroke-width:0.5" />
<path d="M441.46,28.922L441.46,32.922" style="fill:none;stroke:#000000;stroke-width:0.5" />
<path d="M445,24.922L445,32.922" style="fill:none;stroke:#000000;stroke-width:0.5" />
<path d="M58.152,32.922L445,32.922" style="fill:none;stroke:#000000;stroke-width:0.5" />
<g transform="rotate(90)">
<text x="83.824" y="7.9805" transform="scale(1, -1)"
	style="font-family:Liberation Mono;font-variant:normal;font-weight:normal;font-style:normal;font-size:12px">time per entity [ns]</text>
</g>
<text x="17.197" y="-32.186" transform="scale(1, -1)"
	style="font-family:Liberation Mono;font-variant:normal;font-weight:normal;font-style:normal;font-size:10px">0.00</text>
<text x="17.197" y="-147.79" transform="scale(1, -1)"
	style="font-family:Liberation Mono;font-variant:normal;font-weight:normal;font-style:normal;font-size:10px">2.50</text>
<text x="17.197" y="-263.39" transform="scale(1, -1)"
	style="font-family:Liberation Mono;font-variant:normal;font-weight:normal;font-style:normal;font-size:10px">5.00</text>
<path d="M47.202,33.172L55.202,33.172" style="fill:none;stroke:#000000;stroke-width:0.5" />
<path d="M47.202,148.78L55.202,148.78" style="fill:none;stroke:#000000;stroke-width:0.5" />
<path d="M47.202,264.38L55.202,264.38" style="fill:none;stroke:#000000;stroke-width:0.5" />
<path d="M51.202,56.293L55.202,56.293" style="fill:none;stroke:#000000;stroke-width:0.5" />
<path d="M51.202,79.413L55.202,79.413" style="fill:none;stroke:#000000;stroke-width:0.5" />
<path d="M51.202,102.53L55.202,102.53" style="fill:none;stroke:#000000;stroke-width:0.5" />
<path d="M51.202,125.65L55.202,125.65" style="fill:none;stroke:#000000;stroke-width:0.5" />
<path d="M51.202,171.9L55.202,171.9" style="fill:none;stroke:#000000;stroke-width:0.5" />
<path d="M51.202,195.02L55.202,195.02" style="fill:none;stroke:#000000;stroke-width:0.5" />
<path d="M51.202,218.14L55.202,218.14" style="fill:none;stroke:#000000;stroke-width:0.5" />
<path d="M51.202,241.26L55.202,241.26" style="fill:none;stroke:#000000;stroke-width:0.5" />
<path d="M55.202,33.172L55.202,278.5" style="fill:none;stroke:#000000;stroke-width:0.5" />
<path d="M58.152,101.12L135.52,74.218L212.89,71.275L290.26,71.557L367.63,80.477L445,99.302" style="fill:none;stroke:#1E1E1E;stroke-width:1.5" />
<path d="M58.152,103.86L135.52,74.396L212.89,71.326L290.26,71.601L367.63,79.071L445,99.922" style="fill:none;stroke:#1E1E1E;stroke-width:2" />
<path d="M58.152,104.14L135.52,74.479L212.89,71.149L290.26,70.019L367.63,73.059L445,99.313" style="fill:none;stroke:#1E1E1E;stroke-width:2.5" />
<path d="M58.152,103.05L135.52,74.778L212.89,71.274L290.26,71.39L367.63,76.775L445,100.24" style="fill:none;stroke:#1E1E1E;stroke-width:3" />
<path d="M58.152,65.933L135.52,63.564L212.89,66.343L290.26,67.656L367.63,94.059L445,114.31" style="fill:none;stroke:#006BE6;stroke-width:1.5" />
<path d="M58.152,65.68L135.52,67.552L212.89,81.012L290.26,83.555L367.63,158.83L445,174.19" style="fill:none;stroke:#006BE6;stroke-width:2" />
<path d="M58.152,65.741L135.52,66.685L212.89,130.29L290.26,131.84L367.63,258.54L445,274.52" style="fill:none;stroke:#006BE6;stroke-width:2.5" />
<path d="M58.152,65.18L135.52,67.591L212.89,112.02L290.26,113.26L367.63,273.2L445,278.5" style="fill:none;stroke:#006BE6;stroke-width:3" />
<path d="M56.652,272.12L76.652,272.12" style="fill:none;stroke:#1E1E1E;stroke-width:1.5" />
<text x="83.253" y="-271.03" transform="scale(1, -1)"
	style="font-family:Liberation Mono;font-variant:normal;font-weight:normal;font-style:normal;font-size:11px">Ark   4 Variables   32B</text>
<path d="M56.652,260.96L76.652,260.96" style="fill:none;stroke:#1E1E1E;stroke-width:2" />
<text x="83.253" y="-259.88" transform="scale(1, -1)"
	style="font-family:Liberation Mono;font-variant:normal;font-weight:normal;font-style:normal;font-size:11px">Ark   8 Variables   64B</text>
<path d="M56.652,249.8L76.652,249.8" style="fill:none;stroke:#1E1E1E;stroke-width:2.5" />
<text x="83.253" y="-248.72" transform="scale(1, -1)"
	style="font-family:Liberation Mono;font-variant:normal;font-weight:normal;font-style:normal;font-size:11px">Ark  16 Variables  128B</text>
<path d="M56.652,238.64L76.652,238.64" style="fill:none;stroke:#1E1E1E;stroke-width:3" />
<text x="83.253" y="-237.56" transform="scale(1, -1)"
	style="font-family:Liberation Mono;font-variant:normal;font-weight:normal;font-style:normal;font-size:11px">Ark  32 Variables  256B</text>
<path d="M56.652,227.49L76.652,227.49" style="fill:none;stroke:#006BE6;stroke-width:1.5" />
<text x="83.253" y="-226.4" transform="scale(1, -1)"
	style="font-family:Liberation Mono;font-variant:normal;font-weight:normal;font-style:normal;font-size:11px">AoS   4 Variables   32B</text>
<path d="M56.652,216.33L76.652,216.33" style="fill:none;stroke:#006BE6;stroke-width:2" />
<text x="83.253" y="-215.24" transform="scale(1, -1)"
	style="font-family:Liberation Mono;font-variant:normal;font-weight:normal;font-style:normal;font-size:11px">AoS   8 Variables   64B</text>
<path d="M56.652,205.17L76.652,205.17" style="fill:none;stroke:#006BE6;stroke-width:2.5" />
<text x="83.253" y="-204.09" transform="scale(1, -1)"
	style="font-family:Liberation Mono;font-variant:normal;font-weight:normal;font-style:normal;font-size:11px">AoS  16 Variables  128B</text>
<path d="M56.652,194.01L76.652,194.01" style="fill:none;stroke:#006BE6;stroke-width:3" />
<text x="83.253" y="-192.93" transform="scale(1, -1)"
	style="font-family:Liberation Mono;font-variant:normal;font-weight:normal;font-style:normal;font-size:11px">AoS  32 Variables  256B</text>
</g>
</svg>
