<?xml version="1.0" encoding="UTF-8" standalone="no"?>
<!-- Created with Inkscape (http://www.inkscape.org/) -->

<svg
   width="1920"
   height="600"
   viewBox="0 0 507.99997 158.75"
   version="1.1"
   id="svg6296"
   inkscape:version="1.2.1 (9c6d41e410, 2022-07-14)"
   sodipodi:docname="ark-logo-text-light.svg"
   inkscape:export-filename="arche-logo-text.png"
   inkscape:export-xdpi="96"
   inkscape:export-ydpi="96"
   xml:space="preserve"
   xmlns:inkscape="http://www.inkscape.org/namespaces/inkscape"
   xmlns:sodipodi="http://sodipodi.sourceforge.net/DTD/sodipodi-0.dtd"
   xmlns="http://www.w3.org/2000/svg"
   xmlns:svg="http://www.w3.org/2000/svg"><sodipodi:namedview
     id="namedview6298"
     pagecolor="#ffffff"
     bordercolor="#666666"
     borderopacity="1.0"
     inkscape:showpageshadow="2"
     inkscape:pageopacity="0.0"
     inkscape:pagecheckerboard="0"
     inkscape:deskcolor="#d1d1d1"
     inkscape:document-units="px"
     showgrid="false"
     inkscape:zoom="0.4204826"
     inkscape:cx="847.83532"
     inkscape:cy="388.83892"
     inkscape:window-width="1920"
     inkscape:window-height="991"
     inkscape:window-x="-9"
     inkscape:window-y="-9"
     inkscape:window-maximized="1"
     inkscape:current-layer="layer1"
     showguides="true"><inkscape:grid
       type="xygrid"
       id="grid8962"
       spacingx="1.0583333"
       spacingy="1.0583333"
       empspacing="4"
       originx="0"
       originy="0" /></sodipodi:namedview><defs
     id="defs6293" /><g
     inkscape:label="Layer 1"
     inkscape:groupmode="layer"
     id="layer1"><g
       id="g1639"
       style="fill:#0d1117;fill-opacity:1"><text
         xml:space="preserve"
         style="font-size:88.607px;line-height:1.25;font-family:Arial;-inkscape-font-specification:Arial;letter-spacing:0px;word-spacing:0px;fill:#0d1117;fill-opacity:1;stroke-width:0.352562"
         x="257.80322"
         y="126.9267"
         id="text4600-5-9-2"><tspan
           sodipodi:role="line"
           id="tspan4598-4-1-1"
           style="font-style:normal;font-variant:normal;font-weight:900;font-stretch:normal;font-size:88.607px;font-family:Arial;-inkscape-font-specification:'Arial, Heavy';font-variant-ligatures:normal;font-variant-caps:normal;font-variant-numeric:normal;font-variant-east-asian:normal;fill:#0d1117;fill-opacity:1;stroke-width:0.352562"
           x="257.80322"
           y="126.9267">rk</tspan></text><path
         id="rect2643-3-4-3-2-0"
         style="font-variation-settings:normal;fill:#0d1117;fill-opacity:1;stroke:#000000;stroke-width:0;stroke-linecap:round;stroke-linejoin:round;stroke-miterlimit:4;stroke-dasharray:none;stroke-dashoffset:0;stroke-opacity:1;stop-color:#000000"
         d="M 206.62304 29.633332 C 201.90814 29.633332 199.02172 32.681024 197.2262 36.350235 L 148.95163 132.13147 C 148.65712 132.71885 148.94997 132.86332 149.13818 132.76502 C 160.44426 127.41017 175.29875 123.53187 189.7109 123.65498 C 187.53685 116.89867 187.0392 109.71531 187.9849 105.83333 L 223.96823 105.83333 C 225.23519 110.75467 223.96102 121.322 219.78709 129.35386 C 231.84091 131.87687 240.59197 131.48079 250.42657 128.41593 L 250.42657 34.976675 C 250.42657 32.124648 247.969 29.633332 245.1411 29.633332 L 206.62304 29.633332 z M 220.79323 50.799998 A 12.7 12.7 0 0 1 233.49323 63.499998 A 12.7 12.7 0 0 1 220.79323 76.199998 A 12.7 12.7 0 0 1 208.09324 63.499998 A 12.7 12.7 0 0 1 220.79323 50.799998 z M 206.02049 91.853822 L 216.53458 95.543519 L 216.53458 103.94611 L 195.34879 103.94611 L 195.34879 95.543519 L 206.02049 91.853822 z " /></g></g></svg>
