<?xml version="1.0" encoding="UTF-8" standalone="no"?>
<!-- Created with Inkscape (http://www.inkscape.org/) -->

<svg
   width="1300"
   height="450"
   viewBox="0 0 343.95831 119.06249"
   version="1.1"
   id="svg6296"
   inkscape:version="1.2.1 (9c6d41e410, 2022-07-14)"
   sodipodi:docname="logo-light.svg"
   inkscape:export-filename="arche-logo-text.png"
   inkscape:export-xdpi="96"
   inkscape:export-ydpi="96"
   xml:space="preserve"
   xmlns:inkscape="http://www.inkscape.org/namespaces/inkscape"
   xmlns:sodipodi="http://sodipodi.sourceforge.net/DTD/sodipodi-0.dtd"
   xmlns="http://www.w3.org/2000/svg"
   xmlns:svg="http://www.w3.org/2000/svg"><sodipodi:namedview
     id="namedview6298"
     pagecolor="#ffffff"
     bordercolor="#666666"
     borderopacity="1.0"
     inkscape:showpageshadow="2"
     inkscape:pageopacity="0.0"
     inkscape:pagecheckerboard="0"
     inkscape:deskcolor="#d1d1d1"
     inkscape:document-units="px"
     showgrid="false"
     inkscape:zoom="0.2973261"
     inkscape:cx="644.07396"
     inkscape:cy="344.73933"
     inkscape:window-width="1920"
     inkscape:window-height="1013"
     inkscape:window-x="-9"
     inkscape:window-y="-9"
     inkscape:window-maximized="1"
     inkscape:current-layer="layer1"
     showguides="true"><inkscape:grid
       type="xygrid"
       id="grid8962"
       spacingx="1.0583333"
       spacingy="1.0583333"
       empspacing="4"
       originx="-84.983138"
       originy="-25.806398" /></sodipodi:namedview><defs
     id="defs6293" /><g
     inkscape:label="Layer 1"
     inkscape:groupmode="layer"
     id="layer1"
     transform="translate(-84.983146,-25.8064)"><g
       id="g613"
       transform="translate(56.244727)"><text
         xml:space="preserve"
         style="font-size:88.607px;line-height:1.25;font-family:Arial;-inkscape-font-specification:Arial;letter-spacing:0px;word-spacing:0px;fill:#202020;fill-opacity:1;stroke-width:0.352562"
         x="204.52084"
         y="130.77263"
         id="text4600-5-9-2"><tspan
           sodipodi:role="line"
           id="tspan4598-4-1-1"
           style="font-style:normal;font-variant:normal;font-weight:900;font-stretch:normal;font-size:88.607px;font-family:Arial;-inkscape-font-specification:'Arial, Heavy';font-variant-ligatures:normal;font-variant-caps:normal;font-variant-numeric:normal;font-variant-east-asian:normal;fill:#202020;fill-opacity:1;stroke-width:0.352562"
           x="204.52084"
           y="130.77263">rk</tspan></text><path
         id="rect2643-3-4-3-2-0"
         style="font-variation-settings:normal;fill:#202020;fill-opacity:1;stroke:#000000;stroke-width:0;stroke-linecap:round;stroke-linejoin:round;stroke-miterlimit:4;stroke-dasharray:none;stroke-dashoffset:0;stroke-opacity:1;stop-color:#000000"
         d="m 153.34073,33.479316 c -4.71493,0 -7.60133,3.047174 -9.39685,6.716385 L 95.669315,135.97744 c -0.294502,0.58738 -0.0019,0.73134 0.186552,0.63304 11.306083,-5.35485 26.160573,-9.23278 40.572713,-9.10952 -2.17404,-6.75631 -2.6717,-13.93967 -1.72599,-17.82165 h 35.98333 c 1.26695,4.92134 -0.007,15.48867 -4.18114,23.52053 12.05381,2.52301 20.80487,2.12693 30.63947,-0.93793 V 38.822659 c 0,-2.852027 -2.45757,-5.343343 -5.28547,-5.343343 z m 14.17019,21.166665 a 12.7,12.7 0 0 1 12.7,12.699999 12.7,12.7 0 0 1 -12.7,12.699999 12.7,12.7 0 0 1 -12.7,-12.699999 12.7,12.7 0 0 1 12.7,-12.699999 z m -14.77274,41.053305 10.51408,3.690214 v 8.40259 H 142.06648 V 99.3895 Z" /></g></g></svg>
